<svg width="21" height="21" viewBox="0 0 21 21" fill="none" xmlns="http://www.w3.org/2000/svg">
<path d="M9.85354 0.673133C10.4225 0.409656 11.0793 0.409656 11.6482 0.673133L19.9955 4.52983C20.3201 4.67876 20.5263 5.00333 20.5263 5.36227C20.5263 5.72121 20.3201 6.04578 19.9955 6.19471L11.6482 10.0514C11.0793 10.3149 10.4225 10.3149 9.85354 10.0514L1.50627 6.19471C1.18169 6.04197 0.975494 5.71739 0.975494 5.36227C0.975494 5.00715 1.18169 4.67876 1.50627 4.52983L9.85354 0.673133ZM2.8122 8.81421L9.08602 11.7125C10.1437 12.2012 11.3619 12.2012 12.4196 11.7125L18.6934 8.81421L19.9955 9.41753C20.3201 9.56645 20.5263 9.89103 20.5263 10.25C20.5263 10.6089 20.3201 10.9335 19.9955 11.0824L11.6482 14.9391C11.0793 15.2026 10.4225 15.2026 9.85354 14.9391L1.50627 11.0824C1.18169 10.9297 0.975494 10.6051 0.975494 10.25C0.975494 9.89485 1.18169 9.56645 1.50627 9.41753L2.80838 8.81421H2.8122ZM1.50627 14.3052L2.80838 13.7019L9.0822 16.6002C10.1399 17.0889 11.358 17.0889 12.4158 16.6002L18.6896 13.7019L19.9917 14.3052C20.3163 14.4542 20.5225 14.7787 20.5225 15.1377C20.5225 15.4966 20.3163 15.8212 19.9917 15.9701L11.6444 19.8268C11.0755 20.0903 10.4187 20.0903 9.84972 19.8268L1.50627 15.9701C1.18169 15.8174 0.975494 15.4928 0.975494 15.1377C0.975494 14.7825 1.18169 14.4542 1.50627 14.3052Z" fill="#787878"/>
</svg>
