<svg width="19" height="22" viewBox="0 0 19 22" fill="none" xmlns="http://www.w3.org/2000/svg">
<path d="M9.45765 11.0554C10.8188 11.0554 12.1241 10.5147 13.0866 9.55225C14.049 8.58979 14.5897 7.28443 14.5897 5.92331C14.5897 4.5622 14.049 3.25683 13.0866 2.29438C12.1241 1.33193 10.8188 0.791229 9.45765 0.791229C8.09654 0.791229 6.79117 1.33193 5.82872 2.29438C4.86627 3.25683 4.32557 4.5622 4.32557 5.92331C4.32557 7.28443 4.86627 8.58979 5.82872 9.55225C6.79117 10.5147 8.09654 11.0554 9.45765 11.0554ZM3.22583 12.5217C2.54528 12.5217 1.89259 12.7921 1.41137 13.2733C0.93014 13.7545 0.65979 14.4072 0.65979 15.0878V15.4543C0.65979 17.2088 1.77639 18.6927 3.36147 19.7015C4.95535 20.7162 7.11302 21.3196 9.45765 21.3196C11.8023 21.3196 13.9592 20.7162 15.5538 19.7015C17.1389 18.6927 18.2555 17.2088 18.2555 15.4543V15.0878C18.2555 14.4072 17.9852 13.7545 17.5039 13.2733C17.0227 12.7921 16.37 12.5217 15.6895 12.5217H3.22583Z" fill="#787878"/>
</svg>
