<svg width="19" height="18" viewBox="0 0 19 18" fill="none" xmlns="http://www.w3.org/2000/svg">
<path d="M17.7585 5.61988C17.3121 4.55439 16.6626 3.58593 15.8463 2.76847C15.0324 1.94959 14.0656 1.29854 13.0008 0.852267C11.91 0.392874 10.7381 0.157392 9.55447 0.159808H9.51467C8.31083 0.165778 7.14679 0.404557 6.05039 0.874155C4.99474 1.32501 4.03704 1.97722 3.23082 2.79433C2.42241 3.60995 1.78038 4.57503 1.34049 5.6358C0.883856 6.73888 0.652478 7.92216 0.659966 9.116C0.665936 10.4969 0.996246 11.8679 1.61309 13.0937V16.1182C1.61309 16.6236 2.02299 17.0335 2.52642 17.0335H5.54697C6.77841 17.6549 8.13733 17.9819 9.51666 17.9886H9.55845C10.7484 17.9886 11.9005 17.7578 12.9869 17.3061C14.0463 16.8652 15.0095 16.2217 15.8224 15.4118C16.6422 14.598 17.2869 13.6468 17.7386 12.5862C18.2062 11.4879 18.445 10.3198 18.451 9.11401C18.4549 7.90221 18.2201 6.72622 17.7585 5.61988ZM5.58279 10.0293C5.05747 10.0293 4.62966 9.60152 4.62966 9.07421C4.62966 8.54691 5.05747 8.1191 5.58279 8.1191C6.1081 8.1191 6.53591 8.54691 6.53591 9.07421C6.53591 9.60152 6.11009 10.0293 5.58279 10.0293ZM9.55447 10.0293C9.02916 10.0293 8.60135 9.60152 8.60135 9.07421C8.60135 8.54691 9.02916 8.1191 9.55447 8.1191C10.0798 8.1191 10.5076 8.54691 10.5076 9.07421C10.5076 9.60152 10.0798 10.0293 9.55447 10.0293ZM13.5262 10.0293C13.0008 10.0293 12.573 9.60152 12.573 9.07421C12.573 8.54691 13.0008 8.1191 13.5262 8.1191C14.0515 8.1191 14.4793 8.54691 14.4793 9.07421C14.4793 9.60152 14.0515 10.0293 13.5262 10.0293Z" fill="#787878"/>
</svg>
