<svg width="18" height="20" viewBox="0 0 18 20" fill="none" xmlns="http://www.w3.org/2000/svg">
<path d="M0.34404 18.0529V7.43194C0.34404 7.11913 0.414097 6.82302 0.554211 6.5436C0.694325 6.26419 0.887389 6.03406 1.1334 5.85322L7.71347 0.870207C8.05805 0.607086 8.45151 0.475525 8.89385 0.475525C9.33618 0.475525 9.73209 0.607086 10.0816 0.870207L16.6616 5.852C16.9085 6.03284 17.1015 6.26338 17.2408 6.5436C17.3809 6.82302 17.451 7.11913 17.451 7.43194V18.0529C17.451 18.3804 17.3292 18.6659 17.0856 18.9095C16.8421 19.1531 16.5565 19.2748 16.2291 19.2748H12.0941C11.8138 19.2748 11.5792 19.1803 11.3902 18.9914C11.2012 18.8015 11.1068 18.5669 11.1068 18.2875V12.4602C11.1068 12.1808 11.0123 11.9465 10.8233 11.7576C10.6335 11.5678 10.3989 11.4728 10.1194 11.4728H7.67559C7.39618 11.4728 7.16197 11.5678 6.97298 11.7576C6.78318 11.9465 6.68827 12.1808 6.68827 12.4602V18.2887C6.68827 18.5682 6.59378 18.8024 6.40479 18.9914C6.2158 19.1803 5.98159 19.2748 5.70218 19.2748H1.56596C1.23849 19.2748 0.952966 19.1531 0.709395 18.9095C0.465825 18.6659 0.34404 18.3804 0.34404 18.0529Z" fill="#787878"/>
</svg>
