<?xml version="1.0" encoding="UTF-8"?>
<svg id="Layer_2" data-name="Layer 2" xmlns="http://www.w3.org/2000/svg" viewBox="0 0 332.55 132.92">
  <g id="Logos_Brand_Assets" data-name="Logos &amp;amp; Brand Assets">
    <g>
      <g>
        <path d="m243.28,120.95c.93.88,1.34,1.88,1.24,3.01-.1,1.85-.83,3.22-2.16,4.09-1.34.87-3.04,1.31-5.1,1.31s-4.35-.36-6.87-1.08c-2.52-.72-4.87-1.65-7.03-2.78-2.16-1.13-4.28-2.6-6.33-4.4-2.06-1.8-3.86-3.73-5.41-5.79l-25.18,17.61c-10.4-6.59-17.35-11.2-20.85-13.83-3.5-2.63-5.79-5.22-6.87-7.8-1.08-2.57-1.62-6.49-1.62-11.74v-34.45c0-1.65.08-2.78.23-3.4.16-.62.44-1,.85-1.16.41-.16,1.18-.33,2.32-.54,3.71-.72,7.93-2.08,12.67-4.09,4.73-2.01,11.27-5.95,19.62-11.82l14.83-10.66,30.58,19.31c2.26,1.44,3.63,2.81,4.09,4.09.46,1.29.69,3.01.69,5.17v44.79c-3.19.41-5.61,1.54-7.26,3.4-1.65,1.85-2.47,4.02-2.47,6.49s.82,5,2.47,7.26c0-1.13.44-2.14,1.31-3.01.87-.87,1.88-1.31,3.01-1.31,1.24,0,2.32.44,3.24,1.31Zm-33.21-8.26c-1.75-2.88-2.63-5.87-2.63-8.96v-45.72l-14.67-9.58v43.25c0,5.97.59,10.58,1.78,13.82,1.18,3.24,2.6,5.51,4.25,6.8,1.65,1.29,3.86,2.5,6.64,3.63l4.64-3.24Z"/>
        <path d="m332.55,52.91v10.66l-43.4,30.12c.1,5.36.77,9.53,2.01,12.51,1.24,2.99,2.65,5.1,4.25,6.33,1.6,1.24,3.73,2.37,6.41,3.4l26.57-18.54,1.7,2.63-47.27,32.9c-10.4-6.59-17.35-11.2-20.85-13.83-3.5-2.63-5.79-5.22-6.87-7.8-1.08-2.57-1.62-6.49-1.62-11.74v-34.45c0-1.65.08-2.78.23-3.4.16-.62.44-1,.85-1.16.41-.16,1.18-.33,2.32-.54,3.71-.72,7.93-2.08,12.67-4.09,4.73-2.01,11.27-5.95,19.62-11.82l16.37-9.73,22.24,15.29,4.79,3.24Zm-33.21,4.17l-10.19-8.65v41.55l10.19-7.1v-25.8Z"/>
      </g>
      <path d="m156.97,115.6c-1.24-1.1-2.75-1.51-4.59-1.19-1.56.37-2.8,1.01-3.62,1.97-.87.96-1.28,2.06-1.28,3.3,0,1.1.46,2.25,1.38,3.39-.99,1.33-1.51-.32-1.83-.78-7.49-17.8-5-38.49-3.55-57.09.11-1.35,1.39-16.67,2.04-16.74-31,3.49-39.53.09-39.53.09l22.33-22.33c3.62-3.3,6.56-6.83,8.9-10.68,2.29-3.81,3.49-7.25,3.49-10.32,0-1.56-.55-2.84-1.56-3.81-1.01-.96-2.11-1.42-3.39-1.42s-2.48.46-3.35,1.42c-.92.96-1.38,2.11-1.38,3.48,0,1.7.73,2.98,2.2,3.9-3.71,3.58-7.8,5.41-12.2,5.41-3.35,0-6.42-.78-9.13-2.38-2.71-1.56-6.1-3.85-10.13-6.79l-21.19,19.99c-3.49-9.26-10.78-16.19-21.83-20.82L16.6,44.99c-.55.83-.6,1.47-.18,1.97.46.5,1.05.78,1.7.78h.18l1.7-.37c.55,0,1.47.46,2.71,1.38,3.03,2.11,5.18,4.31,6.42,6.51,1.24,2.2,1.88,4.17,1.88,6.01,0,1.1-.23,2.02-.69,2.71-.32.69-.73,1.01-1.19,1.01-.32,0-.5-.32-.5-1.01,0-.55-.27-1.01-.83-1.38-.6-.32-1.19-.5-1.88-.5-1.15,0-2.16.37-3.03,1.1-.92.73-1.38,1.79-1.38,3.12,0,2.16.87,3.81,2.57,4.95,1.65,1.1,3.85,1.65,6.6,1.65,3.71,0,7.38-.87,10.96-2.71,4.08-2.02,7.2-4.82,9.4-8.35,2.2-3.58,3.3-7.47,3.3-11.79s-1.1-8.44-3.3-12.43c-2.2-3.99-5.37-7.43-9.54-10.23-.37-.14-.46-.37-.37-.69.14-.37.46-.37,1.01,0,5.23,3.16,9.26,7.84,12.2,14.03,2.93,6.24,4.4,12.79,4.4,19.81s-1.51,13.39-4.59,18.8c-5.96-1.61-11.92-2.38-17.93-2.38s-12.01.83-18.11,2.52L1.19,106.8c-.78,1.24-1.19,2.52-1.19,3.9,0,1.65.64,3.07,1.88,4.22,1.24,1.1,2.75,1.51,4.59,1.19,1.56-.37,2.8-1.01,3.62-1.97.87-.96,1.28-2.06,1.28-3.3,0-1.1-.46-2.25-1.38-3.39,4.54-3.03,9.81-4.54,15.91-4.54s12.38,1.42,18.8,4.22c6.42,2.84,11.92,6.42,16.51,10.82,4.54,4.4,7.34,8.8,8.35,13.21.78,3.39,12.93-2.66,14.31-3.35,4.17-1.97,8.3-4.26,12.01-7.02,1.56-1.1,3.21-2.29,4.4-3.76,1.93-2.38-1.7-6.14-3.21-7.93-9.72-11.46-21.83-20.91-35.36-27.51,14.17-11.1,22.19-29.53,20.77-47.46-.09-1.51-.27-3.03,0-4.49.32-1.51,1.19-2.98,2.57-3.53,1.42-.6,3.07-.14,4.31.69,1.28.83,2.29,1.97,3.39,3.03,5.82,5.55,14.81,7.52,22.42,4.95-9.54,9.49-19.12,18.98-28.71,28.48-2.2,2.2-4.63,4.95-3.94,8.02.55,2.43,3.35,4.17,5.78,3.49,2.38-.64,3.99-3.53,3.21-5.92,4.22-2.43,10.23-1.15,13.11,2.8,2.38,3.3,2.34,7.34,1.93,11.19-.37,3.07-.64,6.19-.83,9.31-.28,6.56.23,12.66,2.89,18.76,2.38,5.59,6.33,11.37,11.19,15.09,5.88,4.49,14.82,6.81,22.15,6.19,5.46-.46,9.26-2.34,11.74-4.22,2.29-1.74,3.49-3.49,3.94-4.22.78-1.24,1.19-2.52,1.19-3.9,0-1.65-.64-3.07-1.88-4.22Z"/>
    </g>
  </g>
</svg>